<?xml version="1.0" encoding="UTF-8" standalone="no"?>
<svg
   version="1.1"
   width="2000"
   height="2134"
   id="svg7"
   sodipodi:docname="Honestra_logo-transparent.svg"
   inkscape:export-filename="icon16.png"
   inkscape:export-xdpi="1"
   inkscape:export-ydpi="1"
   inkscape:version="1.4.2 (f4327f4, 2025-05-13)"
   xmlns:inkscape="http://www.inkscape.org/namespaces/inkscape"
   xmlns:sodipodi="http://sodipodi.sourceforge.net/DTD/sodipodi-0.dtd"
   xmlns="http://www.w3.org/2000/svg"
   xmlns:svg="http://www.w3.org/2000/svg">
  <defs
     id="defs7" />
  <sodipodi:namedview
     id="namedview7"
     pagecolor="#ffffff"
     bordercolor="#000000"
     borderopacity="0.25"
     inkscape:showpageshadow="2"
     inkscape:pageopacity="0.0"
     inkscape:pagecheckerboard="0"
     inkscape:deskcolor="#d1d1d1"
     inkscape:zoom="0.37816307"
     inkscape:cx="1000.891"
     inkscape:cy="1067"
     inkscape:window-width="1920"
     inkscape:window-height="1009"
     inkscape:window-x="-8"
     inkscape:window-y="-8"
     inkscape:window-maximized="1"
     inkscape:current-layer="svg7" />
  <path
     d="M0 0 C5.7460143 0.01139315 11.49184311 0.00458782 17.23785114 -0.0068779 C60.77503848 -0.08036048 104.25582729 1.27630452 147.70800781 4.01074219 C149.05219683 4.09374658 150.39639468 4.17660791 151.74060059 4.25933838 C186.16742026 6.38707696 220.5390437 9.21471402 254.89550781 12.26074219 C256.18434875 12.37484436 257.4731897 12.48894653 258.80108643 12.60650635 C331.5592485 19.08190312 404.13657684 27.67250364 476.67300415 36.23706055 C480.54585617 36.69386018 484.41890127 37.14899057 488.29199219 37.60375977 C494.4309005 38.32514394 500.56908811 39.05239633 506.70678139 39.78404427 C508.95195252 40.05101707 511.19731408 40.31639491 513.44289207 40.57992363 C525.07350204 41.94670843 536.6684584 43.4583845 548.23852539 45.27270508 C549.24134646 45.42749801 550.24416754 45.58229094 551.27737713 45.74177456 C566.12602452 48.13655721 580.58275132 52.17492018 593.89550781 59.26074219 C594.89582031 59.77121094 595.89613281 60.28167969 596.92675781 60.80761719 C615.32717549 70.76660614 626.57132429 86.28845412 632.79003906 106.11230469 C637.53264111 123.44733286 637.26986315 141.25091797 637.45800781 159.07324219 C637.45142085 188.87038018 637.45142085 188.87038018 640.58300781 218.44824219 C640.75525879 219.45653076 640.92750977 220.46481934 641.10498047 221.50366211 C644.26035782 238.75370022 651.28892475 254.02790085 662.89550781 267.26074219 C663.45367188 267.90269531 664.01183594 268.54464844 664.58691406 269.20605469 C671.44640407 276.54125877 679.85189119 282.30957791 687.89550781 288.26074219 C688.50201172 288.71239746 689.10851563 289.16405273 689.73339844 289.62939453 C747.22057479 332.28487938 811.65835074 349.33630676 881.34472656 358.82714844 C882.3007225 358.95805374 883.25671844 359.08895905 884.24168396 359.22383118 C888.85742437 359.85550824 893.47387369 360.47871478 898.09350586 361.08129883 C922.52616023 364.33123711 948.63198487 369.19564064 964.72753906 389.58105469 C972.52634443 400.69307802 976.46550576 414.87072294 977.89550781 428.26074219 C978.00507812 429.20046875 978.11464844 430.14019531 978.22753906 431.10839844 C979.94181855 448.82261985 978.91107539 466.70127708 977.39550781 484.38574219 C977.21994007 486.49828847 977.04440441 488.61083742 976.86889648 490.72338867 C976.23620047 498.23808765 975.57037461 505.74972715 974.89550781 513.26074219 C974.79695873 514.35827946 974.79695873 514.35827946 974.69641876 515.4779892 C967.1647267 599.23917771 958.04870433 682.82938147 887.89550781 1075.26074219 C887.5751355 1076.52966309 887.5751355 1076.52966309 887.24829102 1077.82421875 C865.50425373 1163.91597998 837.35657462 1248.58174037 759.01269531 1416.58105469 C756.92299595 1420.37182428 754.86778128 1424.1782551 752.84082031 1428.00292969 C744.99187443 1442.77255755 736.4833084 1457.04951728 727.71923828 1471.28564453 C725.51440957 1474.88243739 723.35721077 1478.50559759 721.20800781 1482.13574219 C711.36068447 1498.56692141 700.83424344 1514.53974525 689.89550781 1530.26074219 C688.75096119 1531.91437738 687.60643019 1533.56802339 686.46191406 1535.22167969 C666.30573404 1564.25976653 644.88759424 1592.48688232 621.98583984 1619.41845703 C619.03570185 1622.89315579 616.13882552 1626.40532014 613.27050781 1629.94824219 C609.64716286 1634.39978027 605.87586909 1638.68456674 602.01269531 1642.92871094 C600.11499612 1645.01898108 598.24817367 1647.13060334 596.39550781 1649.26074219 C589.22096764 1657.48842587 581.84989736 1665.5419117 574.45210266 1673.56871033 C573.46838444 1674.63802041 572.48630294 1675.7088406 571.5065155 1676.78175354 C560.61370449 1688.7067489 549.20090755 1700.11008773 537.77099609 1711.515625 C535.04467243 1714.23620168 532.32293487 1716.96131569 529.60245705 1719.68773651 C527.47484862 1721.81897867 525.34483965 1723.94780892 523.21412277 1726.07594299 C522.20961875 1727.07978814 521.20583407 1728.0843537 520.2028389 1729.08970642 C515.10416501 1734.19775652 509.97807397 1739.20472758 504.4859314 1743.89050293 C502.51876447 1745.58532774 500.6985194 1747.39333732 498.89550781 1749.26074219 C495.76704817 1752.43164217 492.52695429 1755.38644179 489.14941406 1758.28808594 C486.93583848 1760.22544412 484.77342984 1762.21188205 482.6171875 1764.21264648 C477.45477563 1769.00126819 472.16547956 1773.53202929 466.67675781 1777.94824219 C463.65529778 1780.46046738 460.77129792 1783.08495483 457.89550781 1785.76074219 C453.34443311 1789.99028149 448.65253219 1793.98154724 443.81347656 1797.87792969 C440.43576647 1800.63616685 437.13346183 1803.47349533 433.83300781 1806.32324219 C429.17409903 1810.33730201 424.46831416 1814.2649173 419.64160156 1818.07714844 C416.79493233 1820.34071615 413.97724078 1822.63711173 411.16113281 1824.93847656 C404.6365692 1830.26727898 398.05899883 1835.49954138 391.36035156 1840.60839844 C388.0179182 1843.1586094 384.70449036 1845.7451467 381.39135742 1848.33325195 C372.31020726 1855.42432881 363.15010051 1862.39776164 353.89550781 1869.26074219 C353.15187988 1869.8122998 352.40825195 1870.36385742 351.64208984 1870.93212891 C334.42027773 1883.69102628 317.04701433 1896.21358437 299.46289062 1908.46826172 C296.84057518 1910.29909473 294.22288565 1912.13636812 291.60644531 1913.97558594 C290.73358887 1914.58861572 289.86073242 1915.20164551 288.96142578 1915.83325195 C287.3217323 1916.98509372 285.68267129 1918.1378367 284.04443359 1919.29174805 C277.73133306 1923.72134888 271.32012942 1927.99508776 264.89550781 1932.26074219 C262.55065176 1933.82549497 260.20752936 1935.39283667 257.86425781 1936.95996094 C243.6032348 1946.49014144 229.32146275 1955.98121019 214.89550781 1965.26074219 C213.94434082 1965.87336914 212.99317383 1966.48599609 212.01318359 1967.1171875 C178.27142687 1988.8341575 144.04563999 2009.69321588 109.51269531 2030.12011719 C106.30494184 2032.01775661 103.09984931 2033.91984588 99.89550781 2035.82324219 C76.23305482 2049.86576492 52.34082897 2063.50816254 28.32519531 2076.93652344 C27.22119385 2077.55390381 26.11719238 2078.17128418 24.97973633 2078.80737305 C22.87675018 2079.9826035 20.77312442 2081.15669054 18.66870117 2082.3293457 C17.69811768 2082.87131592 16.72753418 2083.41328613 15.72753906 2083.97167969 C14.77314941 2084.50116211 13.81875977 2085.03064453 12.83544922 2085.57617188 C10.76524996 2086.7623847 8.722468 2087.99709771 6.70166016 2089.265625 C5.65574707 2089.9162793 4.60983398 2090.56693359 3.53222656 2091.23730469 C2.59467529 2091.83881348 1.65712402 2092.44032227 0.69116211 2093.06005859 C-2.80345858 2094.56093577 -4.47947871 2094.30398648 -8.10449219 2093.26074219 C-10.69970703 2092.08422852 -10.69970703 2092.08422852 -13.31542969 2090.59277344 C-14.79293701 2089.75830688 -14.79293701 2089.75830688 -16.30029297 2088.90698242 C-17.34942871 2088.30184814 -18.39856445 2087.69671387 -19.47949219 2087.07324219 C-20.58147949 2086.44683838 -21.6834668 2085.82043457 -22.81884766 2085.17504883 C-31.32463174 2080.32577004 -39.78289348 2075.39364515 -48.2277832 2070.43920898 C-54.91886015 2066.51700425 -61.6526974 2062.68003311 -68.41699219 2058.88574219 C-79.5913042 2052.60467508 -90.61902675 2046.08682152 -101.6277771 2039.52104187 C-106.10760465 2036.85039457 -110.5968318 2034.19595024 -115.08886719 2031.54589844 C-130.31341813 2022.5575954 -145.41369473 2013.41655675 -160.36669922 2003.98095703 C-164.80415487 2001.19280717 -169.2680258 1998.447736 -173.72949219 1995.69824219 C-180.96961098 1991.22694903 -188.17505629 1986.70384534 -195.35449219 1982.13574219 C-196.18029785 1981.61036865 -197.00610352 1981.08499512 -197.85693359 1980.54370117 C-212.90234379 1970.94556548 -227.84116825 1961.18449064 -242.74633789 1951.37036133 C-244.7087955 1950.07884342 -246.67202409 1948.78849631 -248.63598633 1947.49926758 C-251.52427844 1945.60325165 -254.41032874 1943.70386684 -257.29589844 1941.80371094 C-258.59763756 1940.95041451 -258.59763756 1940.95041451 -259.92567444 1940.07987976 C-264.55644593 1937.02438471 -269.04199714 1933.86809789 -273.40635681 1930.44087219 C-275.21031852 1929.06895768 -275.21031852 1929.06895768 -278.10449219 1928.26074219 C-278.10449219 1927.60074219 -278.10449219 1926.94074219 -278.10449219 1926.26074219 C-278.76964844 1926.04160156 -279.43480469 1925.82246094 -280.12011719 1925.59667969 C-284.07227954 1923.82751801 -287.35684617 1921.41852034 -290.85449219 1918.88574219 C-292.38171403 1917.79312386 -293.90906124 1916.70068073 -295.43652344 1915.60839844 C-296.21334473 1915.05039551 -296.99016602 1914.49239258 -297.79052734 1913.91748047 C-300.66681395 1911.85813452 -303.55978934 1909.82323539 -306.45458984 1907.79003906 C-329.71031798 1891.4484701 -352.54746292 1874.55176166 -375.10449219 1857.26074219 C-376.34535007 1856.31148745 -377.58623236 1855.36226461 -378.82714844 1854.41308594 C-390.06562476 1845.80506819 -401.17751385 1837.05324859 -412.140625 1828.09741211 C-416.43870798 1824.59263778 -420.78478269 1821.15939325 -425.16699219 1817.76074219 C-430.84445976 1813.34538383 -436.29267688 1808.70194955 -441.70141602 1803.96264648 C-445.3623554 1800.75723112 -449.06611967 1797.62872898 -452.85449219 1794.57324219 C-457.53077698 1790.78932535 -461.95454196 1786.7805555 -466.37792969 1782.70605469 C-468.93065429 1780.41664838 -471.54547073 1778.26836347 -474.22949219 1776.13574219 C-480.85244557 1770.79557031 -486.94014482 1764.90254357 -493.10449219 1759.04589844 C-496.08474197 1756.21562876 -499.09685408 1753.43128743 -502.16699219 1750.69824219 C-516.18718371 1738.15756836 -529.5279625 1724.95934536 -542.77124023 1711.60986328 C-546.60059198 1707.75446698 -550.44767201 1703.91715416 -554.30307007 1700.08781433 C-556.46339283 1697.94107069 -558.62088307 1695.79148874 -560.77832031 1693.6418457 C-561.90795139 1692.51724025 -563.03847879 1691.39353437 -564.16992188 1690.27075195 C-569.79444806 1684.68799205 -575.37531932 1679.1301938 -580.52099609 1673.09594727 C-583.43764285 1669.71567689 -586.53469927 1666.50143079 -589.60449219 1663.26074219 C-594.56129386 1658.02799486 -599.39059993 1652.71345036 -604.10449219 1647.26074219 C-605.13955882 1646.07056008 -606.1747126 1644.88045375 -607.20996094 1643.69042969 C-610.51224892 1639.88408877 -613.80913015 1636.07307956 -617.10449219 1632.26074219 C-617.64364258 1631.6376416 -618.18279297 1631.01454102 -618.73828125 1630.37255859 C-624.24792918 1623.99981132 -629.70874026 1617.60924153 -634.92871094 1610.99511719 C-636.62332936 1608.86543514 -638.33404891 1606.75419017 -640.06152344 1604.65136719 C-646.5377765 1596.76166945 -652.80920923 1588.76358663 -658.88964844 1580.56542969 C-661.17913485 1577.4836218 -663.50401462 1574.43211719 -665.85058594 1571.39355469 C-675.70012695 1558.63184853 -685.06788892 1545.60982144 -694.10449219 1532.26074219 C-694.5805188 1531.5576593 -695.05654541 1530.85457642 -695.54699707 1530.13018799 C-709.53062531 1509.45644681 -723.34767368 1488.72041119 -736.10449219 1467.26074219 C-736.69053223 1466.2771875 -737.27657227 1465.29363281 -737.88037109 1464.28027344 C-753.27441054 1438.36238585 -767.54516938 1411.91848369 -781.19299316 1385.0512085 C-782.48704487 1382.50929026 -783.79252911 1379.97327182 -785.09667969 1377.43652344 C-825.39668817 1298.5520244 -855.25140652 1213.42514995 -976.04199219 549.51074219 C-976.1823288 548.03550079 -976.1823288 548.03550079 -976.32550049 546.53045654 C-978.3130139 525.62957927 -980.20494562 504.72375267 -981.83886719 483.79199219 C-981.90253416 482.98745857 -981.96620113 482.18292496 -982.03179741 481.35401154 C-984.45557648 450.54236303 -986.4729856 413.4328517 -965.79199219 387.88574219 C-945.23616041 366.28853567 -911.91976106 364.72092771 -884.15380859 361.06729126 C-858.20569564 357.64405949 -832.41418792 354.0948382 -807.10449219 347.26074219 C-806.04343262 346.98198242 -804.98237305 346.70322266 -803.88916016 346.41601562 C-787.76156856 342.1115622 -772.40864847 335.87389588 -757.10449219 329.26074219 C-756.27691406 328.90367187 -755.44933594 328.54660156 -754.59667969 328.17871094 C-728.07516953 316.58132584 -703.65534824 300.28759569 -681.10449219 282.26074219 C-680.4907373 281.77476562 -679.87698242 281.28878906 -679.24462891 280.78808594 C-658.1706311 264.006622 -647.36269695 241.67363915 -643.82687378 215.18061829 C-643.2409888 209.92988183 -642.823793 204.69373788 -642.56542969 199.41699219 C-642.5234848 198.56915161 -642.48153992 197.72131104 -642.43832397 196.84777832 C-642.10782677 189.55974085 -641.98031469 182.27403567 -641.89355469 174.97949219 C-641.87201324 173.24481689 -641.87201324 173.24481689 -641.85003662 171.47509766 C-641.79299888 166.70657869 -641.73813681 161.9381714 -641.703125 157.16943359 C-641.46559008 127.17041108 -639.34424125 98.18927504 -617.85449219 75.38574219 C-600.88274729 59.28858581 -577.44867992 51.89141244 -554.80908203 48.25463867 C-553.76748114 48.08459792 -552.72588024 47.91455717 -551.65271568 47.73936367 C-541.17976176 46.06052386 -530.67514388 44.73095538 -520.14355469 43.48339844 C-518.06998955 43.23372796 -515.99647426 42.98364326 -513.92300415 42.73318481 C-508.35449623 42.06228309 -502.78512576 41.3988372 -497.21546936 40.73754501 C-493.68966072 40.31850828 -490.16407539 39.89763796 -486.6385498 39.47622681 C-289.04782875 15.86488038 -289.04782875 15.86488038 -133.41699219 4.01074219 C-132.21503204 3.93351929 -131.0130719 3.85629639 -129.77468872 3.7767334 C-86.55584985 1.03372414 -43.30080268 -0.08640366 0 0 Z "
     fill="#1A572C"
     transform="translate(1002.1044921875,19.7392578125)"
     id="path1" />
  <path
     d="M0 0 C1.13175659 0.27154907 1.13175659 0.27154907 2.28637695 0.54858398 C3.10195068 0.74782471 3.91752441 0.94706543 4.7578125 1.15234375 C5.6449292 1.36640869 6.5320459 1.58047363 7.44604492 1.80102539 C9.45673481 2.28678323 11.46704685 2.77410684 13.47705078 3.26269531 C16.55189573 4.00947486 19.62761349 4.7525492 22.70373535 5.49404907 C36.87765191 8.91093771 51.04818124 12.33928502 65.1809082 15.92358398 C71.25133468 17.45637969 77.33762566 18.91562376 83.4296875 20.359375 C97.24266579 23.63489909 111.02374673 27.03957909 124.80810547 30.43310547 C138.73710847 33.86107832 152.67331267 37.2524493 166.63220215 40.55670166 C169.91192935 41.33362896 173.19046064 42.11546311 176.46875 42.8984375 C177.5928125 43.1668042 178.716875 43.4351709 179.875 43.71166992 C182.22825126 44.27909288 184.57969683 44.85403551 186.9296875 45.43481445 C192.8267383 46.89169198 198.71086749 48.27833777 204.671875 49.44921875 C219.57975651 52.53242409 219.57975651 52.53242409 223.1640625 56.81640625 C224.3828125 59.90234375 224.3828125 59.90234375 225.14453125 63.0625 C227.84323308 74.12860537 240.73151597 83.48771011 249.8828125 89.27734375 C250.74165039 89.82632324 251.60048828 90.37530273 252.48535156 90.94091797 C277.21549854 106.50469553 304.67149002 120.94244323 333.0625 128.44921875 C334.8828125 129.08984375 334.8828125 129.08984375 336.8828125 131.08984375 C337.13236016 133.41869825 337.13236016 133.41869825 337.13170147 136.40320492 C337.13859966 138.10455826 337.13859966 138.10455826 337.14563721 139.84028238 C337.13792187 141.72531161 337.13792187 141.72531161 337.13005066 143.64842224 C337.13163763 144.98857167 337.13410011 146.32872031 337.13736707 147.66886669 C337.14380479 151.3641063 337.1376938 155.05923702 337.12960279 158.75446951 C337.12304404 162.73476435 337.12797029 166.71504665 337.13148499 170.69534302 C337.13653563 178.49800249 337.13087442 186.3006197 337.12163468 194.10327392 C337.11126828 203.18262859 337.11132041 212.26197404 337.11180726 221.34133352 C337.11230832 237.53786736 337.10313495 253.73438148 337.08862305 269.9309082 C337.0745371 285.66007853 337.06745214 301.38923149 337.06811523 317.1184082 C337.06815519 318.08696011 337.06819515 319.05551202 337.06823631 320.05341398 C337.06827667 321.02026304 337.06831702 321.9871121 337.0683586 322.98325962 C337.06904799 340.86987623 337.06316068 358.75648543 337.05420538 376.64309965 C337.05118523 382.97710306 337.05012537 389.31110512 337.04967308 395.64510918 C337.0489918 403.36126142 337.0445391 411.0774012 337.03534027 418.79354816 C337.03071467 422.73308144 337.02767958 426.67259875 337.02893448 430.61213493 C337.03002651 434.21499975 337.02652958 437.81782918 337.01928595 441.42068661 C337.01660219 443.34900988 337.01883752 445.27733804 337.021218 447.20566171 C337.01799356 448.34250502 337.01476911 449.47934833 337.01144695 450.65064144 C337.01074253 451.63569099 337.0100381 452.62074055 337.00931233 453.63564008 C336.8828125 456.08984375 336.8828125 456.08984375 335.8828125 459.08984375 C335.74774914 460.60756605 335.65899745 462.12970646 335.6015625 463.65234375 C335.54548828 464.97105469 335.54548828 464.97105469 335.48828125 466.31640625 C335.43607422 467.68925781 335.43607422 467.68925781 335.3828125 469.08984375 C335.31388051 470.90249967 335.24112632 472.71501534 335.1640625 474.52734375 C335.11862305 475.73197266 335.11862305 475.73197266 335.07226562 476.9609375 C334.8828125 479.08984375 334.8828125 479.08984375 333.8828125 482.08984375 C333.77852386 484.29728671 333.69903258 486.50593102 333.6328125 488.71484375 C333.26260014 496.09482944 331.48910543 502.59454581 329.25390625 509.6015625 C328.04878819 513.41093986 327.12847352 517.23912132 326.25415039 521.13574219 C323.24159872 534.36517399 318.25723886 546.66085401 312.8828125 559.08984375 C312.30104248 560.45326904 312.30104248 560.45326904 311.70751953 561.84423828 C305.04181909 577.28074835 296.22448706 591.14700809 286.8828125 605.08984375 C286.15602295 606.18208252 286.15602295 606.18208252 285.41455078 607.29638672 C281.1947373 613.61885086 276.72594332 619.67865718 271.91015625 625.5625 C269.67437919 628.34968258 267.56142379 631.21090551 265.4453125 634.08984375 C261.85735682 638.90672057 258.05141377 643.39549383 253.98046875 647.80859375 C252.16594899 649.78192623 250.42548548 651.79312283 248.6953125 653.83984375 C244.68849387 658.45946994 240.31032794 662.71422407 235.94458008 666.99121094 C233.22292778 669.67315593 230.59903532 672.35553396 228.17578125 675.3125 C223.57467652 680.88555871 217.93775999 685.08288226 212.1328125 689.33984375 C207.81693016 692.5333798 203.79929401 695.86909884 199.8828125 699.52734375 C179.25037789 718.78673259 155.95771491 734.59116795 131.91113281 749.23876953 C129.22402004 750.88127913 126.54436854 752.53530003 123.8674469 754.1943512 C109.68434867 762.9778539 95.36987924 771.240374 80.47021484 778.76953125 C77.2581237 780.40861305 74.08101285 782.10846584 70.90332031 783.81298828 C51.80547636 794.0272545 32.28045628 803.24400457 12.13134766 811.18359375 C10.13559768 811.98796117 8.1689498 812.83184244 6.20703125 813.71484375 C4.68529297 814.39546875 4.68529297 814.39546875 3.1328125 815.08984375 C2.33359375 815.46109375 1.534375 815.83234375 0.7109375 816.21484375 C-8.20982585 818.97485893 -14.35476354 817.91555967 -22.7421875 814.08984375 C-23.75345703 813.64850098 -24.76472656 813.2071582 -25.80664062 812.75244141 C-29.2584051 811.23 -32.68987595 809.66624917 -36.1171875 808.08984375 C-36.7628064 807.79412476 -37.40842529 807.49840576 -38.0736084 807.19372559 C-48.13239017 802.5848442 -58.13955111 797.87163318 -68.1171875 793.08984375 C-68.95185547 792.69055664 -69.78652344 792.29126953 -70.64648438 791.87988281 C-84.71318523 785.11069578 -98.39900196 777.53370522 -112.1171875 770.08984375 C-112.93815918 769.64463379 -113.75913086 769.19942383 -114.60498047 768.74072266 C-124.4663907 763.36649108 -134.00419821 757.51220184 -143.52734375 751.5625 C-148.36625869 748.54386117 -153.24144625 745.58895281 -158.1262207 742.64526367 C-173.0739742 733.62243802 -186.79977911 723.93062028 -200.18115234 712.70996094 C-202.79069558 710.52623724 -205.42030918 708.3685505 -208.0546875 706.21484375 C-208.90804687 705.51617188 -209.76140625 704.8175 -210.640625 704.09765625 C-213.13722673 702.07359744 -215.65709294 700.08136577 -218.1796875 698.08984375 C-221.59536507 695.37454171 -224.84554088 692.5459031 -228.0546875 689.58984375 C-231.32622807 686.58754488 -234.62364395 684.00496922 -238.3046875 681.52734375 C-245.67792552 676.32208907 -251.43598417 669.51938863 -257.47412109 662.875 C-259.46126924 660.71600635 -261.52023398 658.64200797 -263.6171875 656.58984375 C-274.5955076 645.72856331 -284.37558972 633.20587638 -293.30859375 620.6328125 C-294.50316186 618.95319298 -295.71911273 617.28855474 -296.95703125 615.640625 C-321.94894639 582.26696328 -338.90518745 544.67474499 -348.1171875 504.08984375 C-348.29467529 503.31801758 -348.47216309 502.54619141 -348.6550293 501.75097656 C-351.16142741 490.70661719 -352.33818057 479.78493379 -352.77563477 468.48681641 C-352.80713623 467.7138623 -352.8386377 466.9409082 -352.87109375 466.14453125 C-352.89502197 465.45858887 -352.9189502 464.77264648 -352.94360352 464.06591797 C-353.05378084 462.10196813 -353.05378084 462.10196813 -353.62034601 460.31725717 C-354.21576383 457.64791156 -354.24127969 455.21137489 -354.24023533 452.47515488 C-354.24222638 451.32463693 -354.24421743 450.17411899 -354.24626881 448.98873687 C-354.24335597 447.72415719 -354.24044313 446.45957752 -354.23744202 445.15667725 C-354.23787801 443.8002903 -354.23875344 442.44390344 -354.24003118 441.08751702 C-354.24227057 437.35682747 -354.23826243 433.62616654 -354.23325312 429.89548063 C-354.22894085 425.87370014 -354.2303956 421.85192131 -354.2311554 417.83013916 C-354.23168014 410.86097581 -354.22853853 403.89182182 -354.22291756 396.92266083 C-354.21479583 386.84638281 -354.21218664 376.77010931 -354.21092957 366.69382837 C-354.20874011 350.34633875 -354.20208289 333.99885411 -354.19262695 317.65136719 C-354.1834501 301.76985702 -354.1763706 285.88834822 -354.17211914 270.00683594 C-354.17185642 269.02815228 -354.17159369 268.04946863 -354.17132301 267.04112789 C-354.17001799 262.13143507 -354.16875427 257.22174223 -354.16751111 252.31204939 C-354.1571418 211.57131071 -354.13952635 170.83057751 -354.1171875 130.08984375 C-352.85196353 129.61335275 -351.58654445 129.13737978 -350.32104492 128.66162109 C-349.61638596 128.39650726 -348.91172699 128.13139343 -348.18571472 127.85824585 C-346.41574634 127.20075031 -344.63644248 126.56847964 -342.85546875 125.94140625 C-311.37961955 114.67183196 -274.90495566 100.24147835 -251.1171875 76.08984375 C-250.45332031 75.43628906 -249.78945313 74.78273438 -249.10546875 74.109375 C-245.11028862 69.91317952 -242.86297589 65.84710668 -240.94140625 60.38671875 C-238.81368132 54.45732414 -238.81368132 54.45732414 -236.28710938 53.12426758 C-235.56072266 52.91310303 -234.83433594 52.70193848 -234.0859375 52.484375 C-233.27769531 52.24541504 -232.46945312 52.00645508 -231.63671875 51.76025391 C-227.64366586 50.69776135 -223.64476343 49.70072017 -219.6171875 48.77734375 C-217.731704 48.33622305 -215.84629001 47.89480518 -213.9609375 47.453125 C-212.99027344 47.22705566 -212.01960937 47.00098633 -211.01953125 46.76806641 C-206.38128314 45.68419584 -201.74892839 44.57614808 -197.1171875 43.46484375 C-195.6307373 43.1085791 -195.6307373 43.1085791 -194.11425781 42.74511719 C-180.96432466 39.58456756 -167.83033272 36.35808708 -154.6953125 33.13623047 C-143.79165016 30.46374082 -132.8788355 27.83368128 -121.95605469 25.24047852 C-115.85235337 23.79080096 -109.75422733 22.31879361 -103.6585083 20.83587646 C-101.49326189 20.30973033 -99.32743568 19.78600913 -97.16162109 19.26220703 C-87.18846411 16.84384526 -77.23021553 14.36948642 -67.2789917 11.8626709 C-61.80547213 10.48414792 -56.32971891 9.1145838 -50.85357285 7.74653625 C-46.90877624 6.76033552 -42.96538536 5.76907181 -39.0246582 4.76672363 C-35.2609874 3.8094265 -31.49444838 2.86433992 -27.72555161 1.92783737 C-26.31893033 1.57594734 -24.91342646 1.21955612 -23.50915909 0.85838699 C-21.56204302 0.35828402 -19.61042911 -0.12420618 -17.65869141 -0.60595703 C-16.56005768 -0.88303497 -15.46142395 -1.16011292 -14.32949829 -1.44558716 C-9.39333971 -2.15946164 -4.80045458 -1.16254328 0 0 Z "
     fill="#FE4903"
     transform="translate(1008.1171875,703.91015625)"
     id="path2" />
  <path
     d="M0 0 C5.05479471 3.94432267 8.70929132 7.94982655 12.1328125 13.3515625 C12.59838058 14.06603546 13.06394867 14.78050842 13.54362488 15.51663208 C15.08062178 17.87984556 16.60249667 20.25242861 18.125 22.625 C19.22298831 24.31752006 20.32222002 26.00923404 21.42260742 27.70019531 C23.75549473 31.2866893 26.08358794 34.87622886 28.40869141 38.46777344 C33.72891915 46.67536005 39.11484976 54.83965037 44.50109863 63.0039978 C46.32049909 65.76212625 48.13837292 68.52125623 49.95605469 71.28051758 C59.14812386 85.22753597 68.4071499 99.12925143 77.68328857 113.02044678 C84.52169207 123.2624852 91.33789881 133.51518532 98.04101562 143.84643555 C104.28959531 153.46956888 110.59727576 163.05374751 116.90750122 172.63653564 C118.2014455 174.60192764 119.49481728 176.56769668 120.78756714 178.53387451 C122.62505488 181.32829674 124.4642535 184.12157992 126.3046875 186.9140625 C126.88688553 187.79770477 127.46908356 188.68134705 128.06892395 189.59176636 C132.11393879 195.71098965 136.26287918 201.74457507 140.52783203 207.71240234 C142 210 142 210 142 212 C143.58361328 211.45859375 143.58361328 211.45859375 145.19921875 210.90625 C159.1397935 206.42734408 175.76727426 203.48499349 189.65234375 209.734375 C190.42707031 210.15203125 191.20179688 210.5696875 192 211 C192.86753906 211.45890625 193.73507812 211.9178125 194.62890625 212.390625 C197.16844591 213.82881437 199.58700529 215.35949585 202 217 C202.61488281 217.41636719 203.22976563 217.83273437 203.86328125 218.26171875 C214.92485356 226.72954307 222.18113107 241.45753035 224 255 C225.04488174 266.11685659 222.3530801 276.78062649 215.78125 285.8671875 C212.45454062 289.85048426 208.761296 293.43214208 205 297 C203.99797366 297.99796955 202.99760033 298.99760607 202 300 C212.72783269 318.72665531 224.8778055 336.51864016 236.92910767 354.40711975 C240.0017113 358.9774108 240.0017113 358.9774108 239.84375 361.0625 C238.77545269 363.51562715 237.9192115 363.92479489 235.5 365 C234.7884375 365.32484375 234.076875 365.6496875 233.34375 365.984375 C232.5703125 366.31953125 231.796875 366.6546875 231 367 C230.1646875 367.37640625 229.329375 367.7528125 228.46875 368.140625 C226.3180437 369.10708163 224.16199465 370.05913196 222 371 C223.29099436 375.09775104 224.81449987 378.90852905 226.6953125 382.76953125 C227.23712158 383.88674561 227.77893066 385.00395996 228.3371582 386.1550293 C228.93300136 387.37423708 229.52895222 388.59339224 230.125 389.8125 C230.75707967 391.11157689 231.38882631 392.41081586 232.02026367 393.71020508 C233.01198692 395.75043973 234.00417985 397.79043842 234.99790955 399.82969666 C237.21394237 404.37743224 239.41465136 408.93225869 241.60546875 413.4921875 C250.85562119 432.7206539 260.36742958 451.81401182 269.95629883 470.87573242 C275.48515513 481.88002269 280.91264164 492.92327445 286.20147705 504.04504395 C289.72738292 511.45489113 293.35592377 518.80393639 297.0625 526.125 C298.15943062 528.29332152 299.25455889 530.46255602 300.34765625 532.6328125 C300.81179932 533.54949707 301.27594238 534.46618164 301.75415039 535.41064453 C305 542.15677053 305 542.15677053 305 546 C298.99085734 547.51477749 292.98090101 549.02627095 286.97021484 550.53491211 C284.93158442 551.04706213 282.89316717 551.56006157 280.85498047 552.07397461 C246.97769006 560.61397884 246.97769006 560.61397884 242 560 C240.59814453 558.60375977 240.59814453 558.60375977 239.5078125 556.62890625 C239.0943457 555.89430176 238.68087891 555.15969727 238.25488281 554.40283203 C237.84077148 553.60989746 237.42666016 552.81696289 237 552 C236.5884668 551.22382324 236.17693359 550.44764648 235.75292969 549.64794922 C234.42881204 547.0925355 233.14769839 544.51888081 231.875 541.9375 C231.46507812 541.11701172 231.05515625 540.29652344 230.6328125 539.45117188 C228.28575686 534.72599663 225.98597968 529.98039436 223.72407532 525.21395874 C217.26076043 511.6003537 210.60373157 498.09296019 203.83638954 484.62817955 C202.06474095 481.10262425 200.29608339 477.57557724 198.52836609 474.04804993 C193.51234483 464.03982382 188.49119096 454.03417703 183.46704102 444.0300293 C180.37099838 437.86506097 177.27914004 431.69800693 174.18950462 425.52982521 C173.01598064 423.18899196 171.84093854 420.84891916 170.66436195 418.50961876 C169.03346613 415.26691035 167.40741526 412.02181674 165.7824707 408.77612305 C165.05098312 407.32629028 165.05098312 407.32629028 164.30471802 405.84716797 C163.86625046 404.96892868 163.4277829 404.09068939 162.97602844 403.18583679 C162.59210088 402.42112407 162.20817331 401.65641134 161.81261158 400.86852551 C161 399 161 399 161 397 C154.45044429 398.48291827 148.27681633 400.62311735 142 403 C139.62187933 400.09357516 138.24955154 397.43204736 137.00708008 393.89599609 C136.64693314 392.88169525 136.28678619 391.86739441 135.91572571 390.82235718 C135.34835945 389.18939194 135.34835945 389.18939194 134.76953125 387.5234375 C134.37424728 386.40184235 133.97896332 385.28024719 133.57170105 384.12466431 C132.73888388 381.7571313 131.90948055 379.38839504 131.08325195 377.01855469 C129.81401735 373.37935061 128.53389377 369.74412026 127.25195312 366.109375 C126.44467109 363.81012094 125.638009 361.51064909 124.83203125 359.2109375 C124.25555595 357.57189957 124.25555595 357.57189957 123.66743469 355.89974976 C123.31674423 354.89175323 122.96605377 353.88375671 122.60473633 352.84521484 C122.29401688 351.95571136 121.98329742 351.06620789 121.66316223 350.14974976 C121 348 121 348 121 346 C113.38795138 351.24287295 106.61775556 356.86408508 100.125 363.4375 C99.26148926 364.30785889 98.39797852 365.17821777 97.50830078 366.07495117 C89.90652472 373.86602719 83.22792058 382.0854395 77 391 C76.32469238 391.95616211 76.32469238 391.95616211 75.63574219 392.93164062 C39.85750541 443.90840938 24.27954559 510.17410299 32 572 C32.10539325 574.69464915 32.08681616 577.36340661 32.0625 580.0625 C32.05347656 581.37347656 32.04445313 582.68445313 32.03515625 584.03515625 C32.01775391 585.50275391 32.01775391 585.50275391 32 587 C-36.73230326 580.38442876 -109.67202505 546.14779262 -163 503 C-163.53866699 502.56429688 -164.07733398 502.12859375 -164.63232422 501.6796875 C-179.11512846 489.86732168 -192.63823092 476.79824372 -203.72607422 461.71826172 C-205.02250666 459.96964318 -206.35288718 458.25171197 -207.69140625 456.53515625 C-234.28474042 421.98703711 -250.99747902 377.30878524 -251.203125 333.55078125 C-251.20882507 332.57626511 -251.21452515 331.60174896 -251.22039795 330.59770203 C-251.22978908 328.5413011 -251.2363583 326.48488552 -251.24023438 324.4284668 C-251.2498341 321.36543491 -251.2808705 318.3031064 -251.3125 315.24023438 C-251.41375998 296.54487553 -249.32160756 278.30980075 -245.25 260.0625 C-244.86485229 258.31211426 -244.86485229 258.31211426 -244.47192383 256.52636719 C-234.63695326 212.90346616 -217.11780895 170.06941631 -192 133 C-186.76267562 136.73783799 -182.12630411 140.66285795 -177.6875 145.3125 C-172.11641807 151.00379789 -166.28000754 156.0926717 -160 161 C-158.92078617 161.8684403 -157.84271049 162.73829641 -156.765625 163.609375 C-103.05321351 206.80397149 -36.34854693 234.19283903 33.00048828 234.18530273 C35.23359417 234.18748398 37.46619983 234.20571045 39.69921875 234.22460938 C49.22308795 234.26136037 58.42854069 233.54065525 67.86706543 232.26699829 C71.9024473 231.76185384 75.95177696 231.38621031 80 231 C63.82305438 183.62810186 63.82305438 183.62810186 47.23416138 136.39941406 C41.55760087 120.46635435 36.00494011 104.49312988 30.5 88.5 C24.26497371 70.38886218 17.96506133 52.30264061 11.5625 34.25 C11.20510742 33.24203369 10.84771484 32.23406738 10.47949219 31.19555664 C9.46773518 28.34357834 8.45494386 25.49197096 7.44140625 22.640625 C7.13284698 21.77236084 6.82428772 20.90409668 6.50637817 20.00952148 C4.58321891 14.60848248 2.62671433 9.22112475 0.60913086 3.85449219 C0 2 0 2 0 0 Z "
     fill="#FE4A03"
     transform="translate(569,156)"
     id="path3" />
  <path
     d="M0 0 C1 2 1 2 0.42636108 4.22848511 C0.09665314 5.16225983 -0.23305481 6.09603455 -0.57275391 7.05810547 C-0.94632523 8.12794678 -1.31989655 9.19778809 -1.70478821 10.30004883 C-2.12447372 11.47720459 -2.54415924 12.65436035 -2.9765625 13.8671875 C-3.40909836 15.09928955 -3.84163422 16.3313916 -4.28727722 17.60083008 C-5.22900518 20.28328975 -6.17547731 22.96401049 -7.12564087 25.64349365 C-8.63888941 29.91095453 -10.14186877 34.18198656 -11.64331055 38.45361328 C-13.72664097 44.37798238 -15.81431144 50.30080425 -17.90478516 56.22265625 C-20.7961981 64.4150717 -23.6732488 72.61246307 -26.54296875 80.8125 C-26.76346264 81.44254629 -26.98395653 82.07259258 -27.21113205 82.72173119 C-28.31009483 85.8622742 -29.40872708 89.00293259 -30.50720215 92.14364624 C-31.81685752 95.88745649 -33.1275498 99.63090235 -34.43847656 103.37426758 C-40.63857009 121.0825546 -46.80043903 138.80387749 -52.94360352 156.53198242 C-57.37539428 169.32106881 -61.81678371 182.10675182 -66.27349854 194.88717651 C-66.91150743 196.71680131 -67.54933278 198.54649013 -68.18695068 200.37625122 C-71.74974718 210.59928655 -75.33915212 220.81161406 -79 231 C-78.08734375 231.07347656 -78.08734375 231.07347656 -77.15625 231.1484375 C-71.64558973 231.61846441 -66.19181665 232.24892855 -60.71484375 233.01953125 C-51.82528827 234.18055645 -43.01740913 234.3539714 -34.0625 234.3125 C-33.26006866 234.31100952 -32.45763733 234.30951904 -31.63088989 234.3079834 C-17.58959482 234.2613883 -3.86327865 233.34220918 10 231 C10.86786133 230.85546387 11.73572266 230.71092773 12.62988281 230.56201172 C77.60032657 219.39560313 134.94006258 186.78181764 182.38671875 141.7890625 C183.46611043 140.77600394 184.54553619 139.7629817 185.625 138.75 C186.12185303 138.27191895 186.61870605 137.79383789 187.13061523 137.30126953 C190.66139461 134 190.66139461 134 194 134 C195.7265625 136.28125 195.7265625 136.28125 197.625 139.5 C197.97344971 140.08894043 198.32189941 140.67788086 198.6809082 141.28466797 C199.42420784 142.54816149 200.16175047 143.81505624 200.89404297 145.08496094 C201.93711901 146.89111734 202.99982646 148.68422156 204.06640625 150.4765625 C230.5522059 195.62519558 245.82581683 245.27968199 252 297 C252.10530029 297.79374023 252.21060059 298.58748047 252.3190918 299.40527344 C259.23268767 353.79139645 242.12553852 414.12404032 208.6640625 457.39453125 C205.53081699 461.33935665 202.29035431 465.18582486 199 469 C197.88238281 470.31291016 197.88238281 470.31291016 196.7421875 471.65234375 C186.4948072 483.36085241 175.34832832 494.52528532 163 504 C161.74931094 504.99001555 160.4993662 505.98097183 159.25 506.97265625 C143.18758701 519.6116815 126.08973032 530.50567891 108 540 C106.61361328 540.73404053 106.61361328 540.73404053 105.19921875 541.48291016 C67.2608123 561.44035169 13.63616634 587 -30 587 C-29.99333817 586.18663681 -29.98667633 585.37327362 -29.97981262 584.53526306 C-29.91895416 576.75760527 -29.8736544 568.98006766 -29.84456348 561.20223141 C-29.82910344 557.20641111 -29.80824009 553.21079227 -29.77368164 549.21508789 C-29.61983803 530.92289783 -29.7418851 513.07327449 -33 495 C-33.21922119 493.75919678 -33.43844238 492.51839355 -33.66430664 491.23999023 C-34.24913803 488.22167519 -34.90685443 485.23912123 -35.625 482.25 C-35.87588379 481.18910156 -36.12676758 480.12820313 -36.38525391 479.03515625 C-41.03463766 460.09342804 -47.35904889 441.50060824 -56 424 C-56.35030273 423.2869873 -56.70060547 422.57397461 -57.06152344 421.83935547 C-66.64464549 402.55687404 -78.88360077 385.12185544 -93.75 369.55859375 C-96 367 -96 367 -97.0625 364.78515625 C-98.29752096 362.4334705 -99.62989062 362.12656022 -102 361 C-103.43754274 359.62567616 -104.83024643 358.20367049 -106.1875 356.75 C-110.41274152 352.40544102 -114.86000823 349.16355079 -120 346 C-120.13462646 346.55768066 -120.26925293 347.11536133 -120.40795898 347.68994141 C-122.75979528 356.85901426 -125.94704573 365.72793174 -129.09790039 374.64501953 C-130.06719849 377.38829753 -131.03113961 380.13341211 -131.99414062 382.87890625 C-132.61167278 384.63552441 -133.22950077 386.39203859 -133.84765625 388.1484375 C-134.13415543 388.96307465 -134.4206546 389.77771179 -134.71583557 390.61703491 C-136.06918245 394.44478599 -137.45140962 398.2455276 -139 402 C-146.59952888 401.62625268 -152.2402257 399.42410997 -159 396 C-159.27563278 396.88165833 -159.55126556 397.76331665 -159.83525085 398.67169189 C-160.90191643 401.71972304 -162.12775403 404.40429225 -163.63598633 407.25292969 C-164.16971359 408.26937561 -164.70344086 409.28582153 -165.25334167 410.33306885 C-165.83618423 411.43487488 -166.41902679 412.53668091 -167.01953125 413.671875 C-168.29880874 416.11069115 -169.57313743 418.55207085 -170.84619141 420.99414062 C-171.18157142 421.63715748 -171.51695143 422.28017433 -171.86249447 422.94267654 C-175.86555921 430.6358283 -179.75500246 438.38571993 -183.63671875 446.140625 C-184.18916952 447.24423119 -184.18916952 447.24423119 -184.75278091 448.37013245 C-186.63885556 452.13939739 -188.52290412 455.90966929 -190.40551758 459.68066406 C-192.31187404 463.49909627 -194.22188134 467.31568916 -196.1328249 471.13182735 C-203.77308821 486.39298655 -211.33981557 501.67913237 -218.65991211 517.09716797 C-221.98649784 524.09368068 -225.45343889 531.01844906 -228.9375 537.9375 C-229.57637127 539.21018638 -230.21504233 540.48297329 -230.85351562 541.75585938 C-232.04825296 544.13709447 -233.24419652 546.5177092 -234.44091797 548.89794922 C-236.29948744 552.59587964 -238.15096465 556.29729513 -240 560 C-247.71142445 559.51742726 -254.92252186 558.26772057 -262.3984375 556.34765625 C-263.43642487 556.08746201 -264.47441223 555.82726776 -265.54385376 555.55918884 C-267.71788249 555.01251409 -269.89092235 554.46189272 -272.06298828 553.9074707 C-275.38479812 553.06000027 -278.70962381 552.2253079 -282.03515625 551.39257812 C-284.15643676 550.85751071 -286.27753715 550.32172858 -288.3984375 549.78515625 C-289.38806488 549.53613052 -290.37769226 549.2871048 -291.39730835 549.03053284 C-292.7849791 548.67522743 -292.7849791 548.67522743 -294.20068359 548.31274414 C-295.00911713 548.10702286 -295.81755066 547.90130157 -296.65048218 547.68934631 C-299.17688468 546.9481022 -301.57132244 546.01334989 -304 545 C-301.4640335 536.21573455 -297.33151107 528.30064206 -293.21875 520.1796875 C-292.44166919 518.63368953 -291.66519189 517.08738808 -290.88928223 515.540802 C-288.84700976 511.47331279 -286.79792697 507.40929622 -284.74694824 503.34619141 C-281.50081152 496.9130253 -278.26379132 490.47526333 -275.02825165 484.03676224 C-274.23725994 482.46274452 -273.44602477 480.88884912 -272.65454865 479.31507492 C-267.63628044 469.33296247 -262.70893117 459.3170025 -257.93096924 449.21710205 C-254.47789282 441.93895698 -250.89014861 434.73320989 -247.265625 427.5390625 C-246.69102539 426.39774872 -246.11642578 425.25643494 -245.52441406 424.08053589 C-243.17357342 419.41503213 -240.82028629 414.75079831 -238.45947266 410.09033203 C-231.78998166 396.91384243 -225.28400861 383.80090059 -220 370 C-220.67571045 369.82082031 -221.3514209 369.64164063 -222.04760742 369.45703125 C-228.26200099 367.78106853 -233.51782039 365.35022087 -239 362 C-237.63533345 357.15508973 -235.46884353 353.35091826 -232.62109375 349.2578125 C-231.7153053 347.92787022 -230.81022525 346.59744525 -229.90576172 345.26660156 C-229.43064148 344.57135376 -228.95552124 343.87610596 -228.46600342 343.15979004 C-225.97086806 339.48383102 -223.53596843 335.76847894 -221.09765625 332.0546875 C-220.09570958 330.53124575 -219.09375643 329.00780827 -218.09179688 327.484375 C-217.59413818 326.72705078 -217.09647949 325.96972656 -216.58374023 325.18945312 C-215.0406345 322.84173328 -213.49592095 320.49507629 -211.95117188 318.1484375 C-210.9582361 316.63808475 -209.96539399 315.12767042 -208.97265625 313.6171875 C-208.51641373 312.92446747 -208.0601712 312.23174744 -207.59010315 311.51803589 C-206.75448535 310.24513769 -205.92287039 308.96959821 -205.09622192 307.69085693 C-204.12168056 306.187685 -203.12567259 304.69847939 -202.12670898 303.21142578 C-201.75489502 302.48165527 -201.38308105 301.75188477 -201 301 C-202.11726439 297.64820682 -202.95449967 296.98292595 -205.625 294.8125 C-214.02103127 287.63524746 -221.21607994 279.36919633 -222.17700195 267.88452148 C-222.70961247 248.21188352 -222.70961247 248.21188352 -218 239 C-217.61070313 238.11570312 -217.22140625 237.23140625 -216.8203125 236.3203125 C-209.8792161 221.82204605 -198.3446243 214.06696161 -184 208 C-172.60674661 204.20224887 -157.99341199 206.53937413 -146.80078125 210.125 C-144.01179488 211.1490996 -144.01179488 211.1490996 -141 211 C-139.73549658 209.62958498 -139.73549658 209.62958498 -138.6640625 207.69921875 C-137.95576294 206.54341309 -137.95576294 206.54341309 -137.2331543 205.36425781 C-136.70246338 204.48092773 -136.17177246 203.59759766 -135.625 202.6875 C-128.29578094 190.82510972 -120.51056242 179.29064879 -112.6875 167.75 C-103.55855339 154.26446642 -94.49481779 140.74890436 -85.62109375 127.09375 C-79.31162455 117.38821227 -72.93345205 107.72773929 -66.5625 98.0625 C-65.92803955 97.0997818 -65.2935791 96.1370636 -64.63989258 95.14517212 C-56.60393254 82.95356146 -48.5413332 70.78076377 -40.42236328 58.64428711 C-36.44024026 52.68422324 -32.48665891 46.70673154 -28.55859375 40.7109375 C-27.85731857 39.64063293 -27.85731857 39.64063293 -27.14187622 38.54870605 C-24.87157979 35.08224141 -22.6039054 31.61409448 -20.33984375 28.14355469 C-16.32316493 21.99427669 -12.27621163 15.86684347 -8.12890625 9.8046875 C-7.42967041 8.78101074 -6.73043457 7.75733398 -6.01000977 6.70263672 C-4.16494975 4.22178959 -2.24898954 2.11376648 0 0 Z "
     fill="#FE4A03"
     transform="translate(1429,156)"
     id="path4" />
  <path
     d="M0 0 C0.92242996 -0.0040535 1.84485992 -0.00810699 2.79524231 -0.01228333 C5.79712411 -0.02173104 8.79888654 -0.0216724 11.80078125 -0.01953125 C12.84137695 -0.02025635 13.88197266 -0.02098145 14.95410156 -0.02172852 C28.87488962 -0.02066586 42.71926037 0.32776985 56.61328125 1.16796875 C96.56713696 3.51852555 136.60673427 1.95674377 176.58325195 0.87988281 C180.01382204 0.78793341 183.44440419 0.69645316 186.875 0.60546875 C188.10755366 0.57271473 188.10755366 0.57271473 189.3650074 0.53929901 C201.28291863 0.22616065 213.19067532 0.02792019 225.11328125 0.16796875 C225.11328125 3.46796875 225.11328125 6.76796875 225.11328125 10.16796875 C223.70747803 10.17731445 222.3016748 10.18666016 220.85327148 10.19628906 C215.56927375 10.23657331 210.28583502 10.30243392 205.00219727 10.37548828 C202.72818253 10.40347714 200.4540745 10.42479983 198.17993164 10.43896484 C179.95025193 10.55923984 161.41107742 10.68460716 147.55078125 24.35546875 C144.22287069 28.48990822 141.92541115 33.10534209 139.61328125 37.85546875 C139.26966553 38.55373779 138.9260498 39.25200684 138.57202148 39.97143555 C130.58076529 57.21260322 126.12482691 75.98145345 121.61328125 94.35546875 C121.33391724 95.48173676 121.05455322 96.60800476 120.76672363 97.7684021 C116.05216971 116.78485703 111.54606411 135.87152195 108.11328125 155.16796875 C107.76185059 157.00621216 107.76185059 157.00621216 107.40332031 158.8815918 C106.72739757 162.33014211 106.72739757 162.33014211 109.30078125 165.04296875 C113.87293788 168.49748709 117.58695319 168.2953431 123.25334167 168.30841064 C124.33312624 168.31286733 124.33312624 168.31286733 125.43472463 168.31741405 C127.84736401 168.32608699 130.25995369 168.32760811 132.67260742 168.32910156 C134.40241603 168.33373079 136.13222362 168.33875559 137.86203003 168.34414673 C142.56266039 168.35726404 147.26327646 168.36371457 151.96392226 168.36815739 C154.90213637 168.37108964 157.84034658 168.37519478 160.77855873 168.37966156 C169.97561061 168.39333573 179.17265358 168.40300236 188.36971492 168.40686345 C198.97848604 168.41134188 209.58712818 168.42888016 220.19586009 168.45786405 C228.40068709 168.47950028 236.60547785 168.4895688 244.81033307 168.49090457 C249.70837032 168.49195135 254.60628629 168.49783204 259.50429344 168.51572418 C264.11473664 168.53223806 268.72496786 168.53434428 273.33543015 168.52558517 C275.02323157 168.52481653 276.71104455 168.52913465 278.39881706 168.53904343 C292.29482724 168.97629785 292.29482724 168.97629785 304.48828125 163.16796875 C308.49312593 155.77440933 309.66312056 146.91480547 311.05859375 138.6953125 C311.22982254 137.71377701 311.40105133 136.73224152 311.57746887 135.72096252 C311.94477079 133.61238279 312.30974576 131.5033966 312.6725769 129.39404297 C313.44592713 124.89837378 314.23061708 120.40470658 315.01481628 115.91091919 C315.42390341 113.56651203 315.83243613 111.22200807 316.24043274 108.87741089 C318.46067561 96.13194231 320.75226299 83.39951398 323.05078125 70.66796875 C323.43183589 68.55461198 323.81285887 66.4412495 324.19384766 64.32788086 C324.86304482 60.61758888 325.53250867 56.9073455 326.20288086 53.19726562 C326.34985413 52.38223068 326.49682739 51.56719574 326.64825439 50.72746277 C326.98201739 48.89044116 327.32004261 47.05419201 327.66082764 45.21846008 C327.84131653 44.24249374 328.02180542 43.2665274 328.20776367 42.26098633 C328.45534676 40.93240349 328.45534676 40.93240349 328.70793152 39.57698059 C329.79005234 33.14588745 330.23739144 26.68597556 327.55078125 20.66796875 C320.03973678 12.9643334 313.0037221 10.99154495 302.39198303 10.78890991 C301.29067551 10.7773587 300.18936798 10.7658075 299.0546875 10.75390625 C297.9103978 10.7345401 296.76610809 10.71517395 295.58714294 10.69522095 C291.95009703 10.63567795 288.31301904 10.58914063 284.67578125 10.54296875 C282.20246053 10.50476575 279.72915279 10.46571267 277.25585938 10.42578125 C271.20844892 10.32999719 265.16095964 10.24487625 259.11328125 10.16796875 C261.66167623 3.6322091 261.66167623 3.6322091 264.11328125 1.16796875 C266.51977539 0.69799805 266.51977539 0.69799805 269.3984375 0.7421875 C271.03522461 0.75475586 271.03522461 0.75475586 272.70507812 0.76757812 C274.42307617 0.81108398 274.42307617 0.81108398 276.17578125 0.85546875 C277.23216797 0.86513672 278.28855469 0.87480469 279.37695312 0.88476562 C285.12965692 0.96085084 290.87188496 1.15134523 296.61889648 1.40820312 C313.58680429 2.15595846 330.51811626 2.32411448 347.4987793 2.29833984 C351.28780282 2.29264802 355.07675591 2.29602615 358.86577702 2.30179119 C372.47797214 2.31922686 386.06700414 2.28621237 399.66796875 1.6640625 C420.07144185 0.7559545 440.5143477 1.0578838 460.93273926 1.0993042 C466.60554629 1.10968718 472.278358 1.11413332 477.95117188 1.11914062 C489.00522036 1.1297419 500.05924845 1.14672109 511.11328125 1.16796875 C509.65279943 5.30600057 507.95112743 8.79863055 505.11328125 12.16796875 C501.99307251 12.91400146 501.99307251 12.91400146 498.27197266 12.90917969 C497.59161957 12.91659683 496.91126648 12.92401398 496.21029663 12.93165588 C493.96098398 12.94955555 491.7140742 12.92568703 489.46484375 12.90234375 C487.88982782 12.90852367 486.3148209 12.91762428 484.73983765 12.92950439 C480.5856932 12.95426558 476.43235154 12.94500419 472.27819824 12.92694092 C465.66639798 12.90358496 459.05465509 12.93106874 452.44291306 12.95966339 C450.1532361 12.96470419 447.86401295 12.95501705 445.57437134 12.94281006 C425.18680449 12.80458753 425.18680449 12.80458753 407.37890625 21.62890625 C376.32572793 54.44283179 370.9503476 131.35930431 362.2462616 174.56248474 C361.10436334 180.22851814 359.92545442 185.88628874 358.73828125 191.54296875 C358.11867085 194.5198211 357.50046486 197.49696322 356.88232422 200.47412109 C356.30799405 203.23272916 355.73136088 205.99080783 355.15283203 208.74853516 C330.63295527 291.71132812 330.63295527 291.71132812 333.11328125 371.16796875 C338.29325212 376.53561973 342.74991893 379.30749338 350.28125 379.765625 C351.548479 379.84441895 352.81570801 379.92321289 354.12133789 380.00439453 C355.51445058 380.08039863 356.90759965 380.1557384 358.30078125 380.23046875 C359.0060495 380.27121521 359.71131775 380.31196167 360.43795776 380.35394287 C379.64424101 381.46189965 398.88107678 381.81146794 418.11328125 382.16796875 C418.48828125 384.35546875 418.48828125 384.35546875 418.11328125 387.16796875 C415.54171783 390.17195163 413.83698123 391.82349504 409.9402771 392.60223389 C407.34110626 392.76447677 404.79097586 392.7558763 402.1875 392.69140625 C401.20884476 392.68670319 400.23018951 392.68200012 399.22187805 392.67715454 C396.08079032 392.6558845 392.94140756 392.59966138 389.80078125 392.54296875 C387.79493894 392.52642773 385.78907721 392.5120885 383.78320312 392.5 C373.33648105 392.41409754 362.89920877 392.13895957 352.45832825 391.78918457 C334.42900629 391.18645341 316.41977669 391.01143112 298.38085938 391.03759766 C294.38692454 391.04333371 290.39305585 391.0398812 286.39912319 391.03414631 C271.17401815 391.01573603 255.98800276 391.10147518 240.77613831 391.81184387 C230.19986776 392.29427063 219.63579369 392.27929856 209.05078125 392.23046875 C207.09310014 392.22542779 205.13541773 392.22086961 203.17773438 392.21679688 C198.48954965 392.20603318 193.80143103 392.18892246 189.11328125 392.16796875 C190.59828125 387.21796875 190.59828125 387.21796875 192.11328125 382.16796875 C193.24233887 382.1836792 194.37139648 382.19938965 195.53466797 382.21557617 C199.76522553 382.270303 203.99575245 382.30447277 208.2265625 382.33276367 C210.0498584 382.34775364 211.87311885 382.36815259 213.69628906 382.39428711 C232.61282533 382.76413318 232.61282533 382.76413318 248.75 373.6953125 C268.83535916 353.15859696 274.8341573 314.86766247 281.11328125 288.16796875 C281.48034693 286.67444922 281.8475423 285.18096156 282.21484375 283.6875 C285.56820559 269.76100755 288.07626418 255.69716912 290.52661133 241.58959961 C290.80630689 239.98672969 291.08649583 238.38394578 291.3671875 236.78125 C291.50472443 235.99541534 291.64226135 235.20958069 291.78396606 234.39993286 C292.97273944 227.72242394 294.35639071 221.0922458 295.83839417 214.47383118 C297.99296216 205.19226969 297.99296216 205.19226969 296.11328125 196.16796875 C292.42709678 194.74107225 288.46151918 195.01978998 284.56666565 195.02079773 C283.80315149 195.01712104 283.03963733 195.01344435 282.25298637 195.00965625 C279.69282068 194.99863698 277.1326956 194.99477862 274.57250977 194.9909668 C272.73768994 194.98470102 270.90287137 194.97805412 269.0680542 194.97105408 C263.04277426 194.95003207 257.01749411 194.93965626 250.9921875 194.9296875 C248.91826807 194.92563983 246.84434877 194.9215229 244.77042961 194.91733742 C235.03090935 194.8982931 225.29139665 194.88405814 215.55186135 194.87572545 C204.30345197 194.865943 193.05523884 194.839594 181.80689865 194.79922456 C173.11466571 194.76909695 164.42248916 194.75425993 155.730205 194.75094444 C150.53715076 194.74859092 145.34430638 194.73959065 140.15130806 194.71448326 C135.2683414 194.691255 130.38572359 194.68694811 125.50271606 194.69724464 C123.71002481 194.69774133 121.91731668 194.69138197 120.12467766 194.6776886 C117.67832443 194.66004592 115.2332337 194.66703726 112.78688049 194.68022156 C112.07656585 194.66925231 111.3662512 194.65828307 110.63441187 194.64698142 C105.86086595 194.70914915 103.48321408 195.81945971 100.11328125 199.16796875 C95.57450197 205.85890629 94.69818332 214.38645461 93.36328125 222.16796875 C92.9841456 224.29728759 92.60051391 226.42576492 92.21644592 228.55419922 C91.94436816 230.06212237 91.67350795 231.57026565 91.40379333 233.07861328 C89.93297327 241.26979931 88.3059693 249.42894233 86.68606567 257.5916748 C82.95583458 276.42464588 79.54723514 295.30309819 76.31262207 314.227005 C75.54684831 318.69460611 74.75907955 323.15727527 73.94184875 327.61575317 C73.57462669 329.6192141 73.21182428 331.62342606 72.8503418 333.62792969 C72.42037661 336.00386474 71.98256529 338.37840272 71.53442383 340.75097656 C68.81274543 355.48160455 68.81274543 355.48160455 72.77734375 369.453125 C79.90720712 378.60520108 89.18151883 380.14658846 100.15625 381.5703125 C114.69576739 383.08305647 129.51684791 382.39482015 144.11328125 382.16796875 C142.72568886 386.21511323 141.35527987 389.31967047 138.11328125 392.16796875 C134.6343581 392.87934057 131.21813728 392.77255269 127.6796875 392.69140625 C126.65076889 392.68670319 125.62185028 392.68200012 124.56175232 392.67715454 C121.26574957 392.65580808 117.97135201 392.59930329 114.67578125 392.54296875 C112.49155193 392.52645467 110.30730507 392.51210841 108.12304688 392.5 C100.01537616 392.43250264 91.95591924 392.35342881 83.8737793 391.65917969 C76.35449106 391.04548655 68.85427178 391.02343025 61.31640625 391.03515625 C59.81163509 391.03413883 58.30686412 391.03279834 56.80209351 391.03115845 C52.81376924 391.02848463 48.82548457 391.0328883 44.83716583 391.03939819 C42.34104802 391.04300084 39.84493602 391.04459407 37.34881592 391.0456543 C18.74545119 391.05547579 0.15759947 391.13064609 -18.43734741 391.73916626 C-37.93556245 392.36196201 -57.44340272 392.24973974 -76.94921875 392.23046875 C-77.81582878 392.22961273 -78.68243881 392.22875671 -79.57530975 392.22787476 C-90.34580018 392.21641334 -101.11625936 392.19615413 -111.88671875 392.16796875 C-111.07629039 390.68766603 -110.26331527 389.20875733 -109.44921875 387.73046875 C-108.99675781 386.90675781 -108.54429687 386.08304688 -108.078125 385.234375 C-106.88671875 383.16796875 -106.88671875 383.16796875 -105.88671875 382.16796875 C-103.79809064 382.09477152 -101.70694728 382.09283425 -99.6171875 382.11791992 C-98.96159851 382.12419907 -98.30600952 382.13047821 -97.6305542 382.13694763 C-96.19931031 382.15084158 -94.76808526 382.16678691 -93.33688354 382.18449974 C-91.05540205 382.21115736 -88.77401828 382.22902276 -86.49243164 382.24397278 C-80.00193595 382.28664807 -73.51162385 382.33323504 -67.02148438 382.41479492 C-63.05213089 382.4640254 -59.08305425 382.49251878 -55.11343384 382.5085392 C-53.61464791 382.51829336 -52.11588741 382.53527637 -50.61727905 382.56032372 C-42.41611889 382.69405121 -34.72245277 382.22108587 -26.703125 380.39575195 C-26.00791245 380.24019679 -25.31269989 380.08464163 -24.59642029 379.92437267 C-16.34810316 377.84927396 -10.6369424 373.02820062 -5.88671875 366.16796875 C4.44642631 346.90461216 9.50879083 323.97025612 15.36328125 303.04296875 C15.68177032 301.91021515 16.0002594 300.77746155 16.32839966 299.61038208 C35.08697821 232.85938626 49.25511068 165.70302957 61.17578125 97.41796875 C61.81182834 93.7837617 62.44822832 90.14961667 63.08480835 86.51550293 C63.4990535 84.14572264 63.91185704 81.77568985 64.32315063 79.40539551 C65.29261586 73.82161332 66.27873086 68.24227687 67.31201172 62.66992188 C67.49944443 61.64219666 67.68687714 60.61447144 67.87998962 59.55560303 C68.22625645 57.66047154 68.57968756 55.76662591 68.94239807 53.87457275 C71.12751226 41.79952109 70.70658058 32.32811182 63.98828125 21.85546875 C56.12889994 14.50865579 47.30891561 13.14789358 36.90625 12.609375 C36.092061 12.56712296 35.27787201 12.52487091 34.43901062 12.4813385 C22.77467783 11.94236808 11.09928345 12.061871 -0.57421875 12.10546875 C-2.9446605 12.11049878 -5.3151033 12.115059 -7.68554688 12.11914062 C-13.41929414 12.13001565 -19.15300135 12.14663223 -24.88671875 12.16796875 C-22.00398259 3.48372608 -22.00398259 3.48372608 -19.88671875 1.16796875 C-13.43525973 -0.18388667 -6.56867418 0.00919488 0 0 Z "
     fill="#010000"
     transform="translate(805.88671875,864.83203125)"
     id="path5" />
  <path
     d="M0 0 C2.50729134 4.98923287 5.01156156 9.97996828 7.51342773 14.97192383 C8.35901861 16.6581792 9.20533512 18.34407096 10.05249023 20.02954102 C14.83507097 29.54616285 19.53994396 39.09206025 24.10546875 48.71484375 C28.59315597 58.1589919 33.22222762 67.52722672 37.90625 76.875 C38.25391104 77.56888762 38.60157207 78.26277523 38.9597683 78.97768974 C41.47031663 83.98656453 43.98475186 88.993484 46.5 94 C49.36718349 99.70703138 52.23275934 105.41486114 55.09375 111.125 C55.44126312 111.81850555 55.78877625 112.51201111 56.14682007 113.22653198 C60.87248517 122.66445468 65.49758282 132.14327089 70.01940918 141.6809082 C75.49875174 153.21013289 81.26334308 164.59730152 87 176 C93.73447571 189.38605342 100.41318936 202.78731759 106.84082031 216.32373047 C112.38651968 227.96889948 118.20345757 239.47826765 124 251 C130.91883367 264.75249998 137.79691781 278.51515616 144.38244629 292.43115234 C146.60467588 297.12159254 148.87485771 301.77285257 151.28678894 306.36897278 C155.52135635 314.62468981 156.45375683 321.72119751 154.36328125 330.75 C151.48833421 339.28377944 145.68669532 344.83024462 137.8125 348.9375 C129.17978195 353.05163865 119.29627268 353.411423 110.25 350.375 C96.02227165 344.47919314 91.27855744 332.89435506 84.74291992 319.69165039 C83.83499976 317.85794231 82.92103176 316.02736299 82.00585938 314.19726562 C78.19387666 306.55015894 74.49427073 298.85282597 70.82421875 291.13671875 C64.72767429 278.33472613 58.3723961 265.66635121 52 253 C45.26552429 239.61394658 38.58681064 226.21268241 32.15917969 212.67626953 C26.61348032 201.03110052 20.79654243 189.52173235 15 178 C8.26552429 164.61394658 1.58681064 151.21268241 -4.84082031 137.67626953 C-10.38651968 126.03110052 -16.20345757 114.52173235 -22 103 C-28.91657355 89.25199243 -35.78998715 75.4924004 -42.38244629 61.58532715 C-45.43368403 55.14954305 -48.5941587 48.78089564 -51.85546875 42.44921875 C-53 40 -53 40 -53 38 C-51.64916992 36.80175781 -51.64916992 36.80175781 -49.73046875 35.453125 C-49.01576416 34.94491211 -48.30105957 34.43669922 -47.56469727 33.91308594 C-46.78022217 33.36426758 -45.99574707 32.81544922 -45.1875 32.25 C-43.53327259 31.07373414 -41.87964645 29.8966223 -40.2265625 28.71875 C-38.93540527 27.80222656 -38.93540527 27.80222656 -37.61816406 26.8671875 C-27.19530805 19.43395337 -16.82877913 11.91916218 -7.03125 3.671875 C-2.57009346 0 -2.57009346 0 0 0 Z "
     fill="#FE4A03"
     transform="translate(1233,1426)"
     id="path6" />
  <path
     d="M0 0 C4.57832599 1.69639434 7.9081328 4.14454173 11.625 7.25 C24.93348692 18.12951718 38.97546086 28.07071781 53 38 C52.3764733 42.75720536 50.35260469 46.69084464 48.20556641 50.91357422 C47.81343964 51.69665955 47.42131287 52.47974487 47.01730347 53.28656006 C45.71760576 55.87876414 44.4095323 58.46664889 43.1015625 61.0546875 C42.18710695 62.87544823 41.27324774 64.69650859 40.35995483 66.51785278 C37.94608045 71.32846517 35.5254033 76.13562012 33.10290527 80.94189453 C28.80302917 89.47558768 24.51468898 98.01508601 20.2265625 106.5546875 C19.76594673 107.47140984 19.30533096 108.38813217 18.83075714 109.33263397 C13.35273401 120.23853309 7.93496349 131.16266333 2.71939087 142.19699097 C-3.18786261 154.67683918 -9.4610303 166.97793302 -15.66601562 179.31152344 C-21.36316508 190.64222315 -27.0295862 201.98029459 -32.46875 213.4375 C-39.171234 227.55423622 -46.21735595 241.49701773 -53.23876953 255.45703125 C-60.55183412 270.00490179 -67.7320431 284.6028444 -74.72003174 299.30957031 C-77.94446694 306.0871729 -81.19929034 312.84908359 -84.50805664 319.5859375 C-85.30669305 321.22057148 -86.09816119 322.85872382 -86.88305664 324.5 C-95.79893994 343.12097594 -95.79893994 343.12097594 -105.828125 348.5234375 C-106.62734375 348.80445313 -107.4265625 349.08546875 -108.25 349.375 C-109.05953125 349.67148438 -109.8690625 349.96796875 -110.703125 350.2734375 C-119.52856165 353.06515726 -129.04835869 353.39672021 -137.58203125 349.45703125 C-146.45104263 344.11269967 -151.74919835 337.75240494 -155 328 C-155.8419799 318.96285524 -154.67676311 312.50396338 -150.4375 304.5625 C-149.92517822 303.54881348 -149.41285645 302.53512695 -148.88500977 301.49072266 C-147.67290186 299.09526466 -146.45173546 296.70638383 -145.21875 294.32177734 C-141.04338864 286.22160503 -137.01430658 278.04647569 -132.9458313 269.89230347 C-131.48150018 266.96301905 -130.01125221 264.03679085 -128.53881836 261.11157227 C-123.77665082 251.64104843 -119.08498785 242.14486313 -114.53515625 232.5703125 C-108.37555671 219.6096449 -101.93146583 206.79641863 -95.47949219 193.97949219 C-90.08696944 183.26033604 -84.74077207 172.52703569 -79.59375 161.6875 C-72.86893037 147.5297929 -65.80358109 133.54460941 -58.76123047 119.54296875 C-52.93786046 107.95854583 -47.13583206 96.37091113 -41.578125 84.65625 C-37.43076899 75.9165025 -33.16272331 67.24168547 -28.828125 58.59375 C-28.51914276 57.97722565 -28.21016052 57.36070129 -27.89181519 56.72549438 C-25.68076196 52.31554567 -23.46577145 47.90757947 -21.25 43.5 C-18.71098088 38.4491993 -16.17356033 33.39760487 -13.640625 28.34375 C-13.34095322 27.74592712 -13.04128143 27.14810425 -12.73252869 26.53216553 C-8.33686723 17.7554329 -4.04328618 8.94505208 0 0 Z "
     fill="#FE4A03"
     transform="translate(766,1426)"
     id="path7" />
</svg>
